<?xml version="1.0" standalone="no"?>
<!DOCTYPE svg PUBLIC "-//W3C//DTD SVG 20010904//EN"
 "http://www.w3.org/TR/2001/REC-SVG-20010904/DTD/svg10.dtd">
<svg version="1.0" xmlns="http://www.w3.org/2000/svg"
 width="1280.000000pt" height="640.000000pt" viewBox="0 0 1280.000000 640.000000"
 preserveAspectRatio="xMidYMid meet">
<metadata>
Created by potrace 1.15, written by Peter Selinger 2001-2017
</metadata>
<g transform="translate(0.000000,640.000000) scale(0.100000,-0.100000)"
fill="#000000" stroke="none">
<path d="M12428 5167 c-65 -28 -110 -88 -183 -242 -40 -82 -80 -174 -89 -203
-12 -34 -42 -82 -91 -140 -132 -160 -189 -196 -412 -257 -468 -129 -908 -168
-2408 -215 -1133 -35 -1696 -45 -1705 -30 -7 11 -56 12 -267 6 -279 -7 -331
-2 -415 40 -25 13 -56 37 -68 55 -28 38 -36 104 -20 153 14 44 92 110 197 168
72 40 82 53 67 92 -10 26 -32 18 -39 -14 -5 -25 -18 -36 -67 -60 -114 -57
-206 -137 -227 -199 -23 -71 -5 -156 49 -222 l29 -36 -46 -7 c-112 -15 -153
-1 -125 44 6 10 12 51 13 91 l3 74 -39 19 c-21 11 -60 21 -87 24 l-48 5 0 142
0 143 31 6 c17 3 42 6 55 6 23 0 24 3 24 65 l0 64 -37 8 c-47 10 -205 10 -255
0 l-38 -8 0 -64 c0 -62 1 -65 24 -65 13 0 38 -3 55 -6 l31 -6 0 -143 0 -142
-50 -6 c-27 -3 -66 -14 -85 -23 l-35 -16 0 -77 c0 -42 5 -82 11 -88 6 -6 9
-21 7 -34 -3 -22 -8 -24 -65 -27 l-63 -3 0 35 c0 19 5 38 10 41 6 3 10 39 10
80 l0 73 -42 17 c-24 9 -63 20 -88 24 l-45 6 -3 141 -3 141 32 7 c17 3 42 6
55 6 23 0 24 3 24 65 0 62 -1 65 -27 72 -40 11 -256 8 -277 -4 -15 -8 -18 -22
-18 -69 0 -32 3 -59 8 -60 5 -1 31 -5 57 -9 l48 -6 -3 -142 -3 -142 -45 -6
c-25 -4 -64 -15 -87 -24 l-43 -17 0 -78 c0 -44 4 -82 10 -85 6 -3 10 -22 10
-41 l0 -34 -85 0 -85 0 0 34 c0 19 5 38 10 41 6 3 10 42 10 86 l0 80 -36 15
c-20 8 -58 18 -85 21 l-49 6 0 142 0 143 31 6 c17 3 42 6 55 6 23 0 24 3 24
65 l0 64 -37 8 c-47 10 -205 10 -255 0 l-38 -8 0 -64 c0 -62 1 -65 24 -65 13
0 38 -3 55 -6 l31 -6 0 -143 0 -142 -50 -6 c-27 -3 -66 -14 -85 -23 l-35 -16
0 -79 c0 -43 5 -81 10 -84 5 -3 10 -24 10 -46 l0 -40 -2036 2 -2036 1 -50 34
c-76 52 -131 64 -330 71 l-178 6 -25 44 -26 43 -122 0 -122 0 -39 -61 c-66
-103 -89 -178 -89 -294 0 -114 23 -192 89 -290 l36 -55 118 0 118 0 31 50 31
50 117 0 c219 0 338 25 403 83 l25 23 949 3 949 3 -68 -63 c-274 -255 -391
-645 -305 -1007 65 -270 166 -435 335 -541 99 -63 304 -128 491 -155 58 -9
124 -26 156 -41 32 -14 92 -30 139 -36 46 -6 92 -15 101 -20 25 -13 248 -12
248 1 0 14 837 14 845 0 10 -15 128 -12 168 5 20 8 46 15 57 15 20 0 20 -5 20
-226 0 -217 -1 -226 -20 -231 -18 -5 -20 -14 -20 -85 l0 -79 33 -14 c19 -8 73
-20 120 -26 99 -15 235 -1 297 29 35 17 35 17 38 93 3 70 1 77 -18 82 -28 7
-29 72 -1 87 26 13 80 13 120 -1 27 -10 31 -15 31 -49 0 -27 -5 -39 -16 -42
-13 -2 -16 -17 -16 -78 0 -71 1 -76 27 -92 15 -9 66 -22 114 -29 99 -14 245
-1 305 28 l36 17 0 78 c0 63 -3 78 -15 78 -11 0 -15 12 -15 45 0 39 3 45 24
51 13 3 42 0 65 -6 38 -10 41 -13 41 -45 0 -24 -6 -37 -20 -45 -17 -9 -20 -21
-20 -79 0 -89 11 -98 134 -119 79 -14 109 -14 186 -5 50 7 108 20 128 30 l37
18 3 76 c3 70 1 77 -18 82 -19 5 -20 12 -20 226 l0 221 745 0 745 0 0 -45 0
-45 -335 0 -335 0 0 25 c0 22 -4 25 -35 25 -31 0 -35 -3 -35 -25 0 -16 -6 -25
-15 -25 -9 0 -15 9 -15 25 0 22 -4 25 -35 25 l-35 0 0 -80 0 -80 35 0 c33 0
35 2 35 35 0 24 5 35 15 35 10 0 15 -11 15 -35 0 -33 2 -35 35 -35 33 0 35 2
35 35 l0 35 335 0 335 0 0 -30 0 -30 75 0 75 0 0 30 c0 27 3 30 30 30 27 0 30
-3 30 -30 l0 -30 75 0 75 0 0 30 c0 28 2 30 40 30 33 0 40 3 40 20 0 17 -7 20
-40 20 l-40 0 0 45 0 45 195 0 c123 0 195 -4 195 -10 0 -13 223 -14 248 -1 9
5 55 14 101 20 74 9 87 9 103 -6 23 -21 23 -36 -2 -58 -11 -10 -20 -24 -20
-31 0 -18 92 -76 110 -68 8 3 39 12 68 20 56 15 139 54 183 86 15 12 46 46 69
78 l41 56 97 12 c53 6 137 23 186 37 94 27 117 24 97 -13 -6 -11 -11 -34 -11
-51 0 -24 5 -32 24 -37 13 -3 34 0 46 6 13 7 37 9 60 5 84 -14 215 54 339 176
65 65 101 119 173 264 90 179 114 265 108 385 -1 34 -2 34 -16 -15 -32 -108
-72 -177 -191 -326 l-53 -67 -37 19 c-21 11 -48 19 -60 19 -29 0 -29 3 2 83
58 156 95 374 95 567 0 112 -19 297 -40 385 -5 22 -7 41 -5 43 12 12 493 -74
694 -124 391 -96 583 -191 723 -355 55 -65 68 -91 97 -188 28 -92 164 -351
209 -397 48 -49 80 -46 143 13 105 98 212 298 258 484 36 140 86 437 103 609
16 161 16 708 0 910 -24 294 -40 382 -99 515 -66 152 -152 256 -209 255 -11
-1 -31 -6 -46 -13z m-7368 -2002 l0 -565 -27 0 c-16 1 -39 7 -53 15 -29 17
-175 21 -185 5 -4 -6 -158 -10 -430 -10 -272 0 -426 4 -430 10 -10 15 -199 12
-299 -6 -148 -26 -228 -77 -284 -181 -28 -52 -35 -77 -46 -158 -3 -23 -19 -23
-106 1 -203 57 -335 205 -391 439 -18 78 -21 109 -16 230 16 391 134 589 430
720 151 66 107 64 1015 64 l822 1 0 -565z m526 555 l54 0 0 -440 c0 -287 -3
-440 -10 -440 -5 0 -10 -7 -10 -15 0 -8 -11 -22 -25 -31 -32 -21 -78 -11 -105
23 -19 25 -20 40 -20 471 l0 445 31 -7 c17 -3 56 -6 85 -6z m604 -459 c0 -438
0 -440 -21 -455 -23 -15 -73 -12 -96 7 -10 7 -13 109 -13 448 l0 439 65 0 65
0 0 -439z m1040 408 c461 -14 1717 -72 1858 -85 l62 -6 0 -49 c0 -37 4 -49 15
-49 13 0 15 -55 15 -433 l0 -434 -47 8 c-70 11 -251 11 -258 -1 -4 -6 -108
-10 -281 -10 -237 0 -274 2 -274 15 0 8 9 15 20 15 14 0 20 7 20 21 0 16 -5
20 -20 16 -17 -4 -20 0 -20 24 0 28 -1 29 -50 29 l-50 0 0 35 c0 32 2 35 31
35 24 0 30 4 27 18 -3 14 -17 17 -96 20 -87 3 -92 2 -92 -18 0 -16 6 -20 30
-20 28 0 30 -3 30 -35 l0 -35 -49 0 c-46 0 -50 -2 -53 -25 l-3 -25 -472 -3
-472 -2 40 41 c125 127 95 334 -62 419 -45 24 -65 29 -124 29 -59 0 -79 -5
-124 -29 -85 -47 -139 -133 -140 -227 -2 -103 63 -204 159 -247 44 -20 64 -21
623 -21 507 0 577 -2 577 -15 0 -13 -84 -15 -722 -13 l-723 3 -3 525 c-1 289
0 531 3 538 4 10 38 12 157 7 84 -3 295 -10 468 -16z m2485 -125 c358 -25 518
-42 526 -56 17 -28 51 -175 66 -286 20 -159 14 -418 -14 -517 -42 -148 -128
-282 -225 -348 -64 -44 -157 -79 -217 -81 -44 -1 -45 0 -53 37 -10 47 -37 101
-96 190 -48 72 -65 77 -37 10 18 -42 55 -187 55 -215 0 -16 -12 -18 -108 -18
l-107 0 -12 60 c-21 113 -85 205 -173 250 l-40 20 0 445 0 445 25 0 c23 0 25
4 25 46 l0 46 83 -6 c45 -3 181 -13 302 -22z m-2692 -425 c49 -13 115 -73 138
-124 43 -93 7 -219 -79 -279 -49 -35 -136 -46 -197 -26 -85 28 -148 120 -147
214 1 94 41 159 124 200 56 28 100 32 161 15z m-859 -449 l26 -10 0 -225 0
-225 -25 -12 c-17 -8 -37 -8 -63 -2 l-37 9 -3 228 -2 228 22 9 c31 12 52 12
82 0z m-542 -21 c24 -13 24 -44 1 -33 -10 4 -49 10 -88 14 l-70 6 35 17 c35
17 86 15 122 -4z m-1907 -329 c4 -6 58 -10 131 -10 76 0 124 4 124 10 0 7 145
10 414 10 266 0 417 -4 421 -10 3 -5 35 -10 71 -10 l64 0 0 -64 0 -64 -157 -7
c-86 -4 -385 -5 -665 -2 -574 6 -558 4 -558 76 0 47 14 60 77 71 68 11 71 11
78 0z m5125 0 c0 -14 243 -13 257 1 6 6 20 8 32 4 16 -5 21 -15 21 -41 l0 -34
-1220 0 c-807 0 -1220 3 -1220 10 0 6 -23 10 -50 10 -52 0 -69 13 -56 45 5 13
139 15 1121 15 737 0 1115 -3 1115 -10z m-3200 -81 c0 -62 -3 -78 -12 -72 -7
4 -44 10 -83 13 l-70 5 -3 62 -3 62 78 4 c43 1 81 4 86 5 4 1 7 -34 7 -79z
m4799 27 c9 -8 32 -18 51 -23 72 -19 43 -79 -73 -150 l-58 -35 -20 21 c-11 11
-30 21 -43 21 -41 0 -37 13 17 61 29 26 64 63 78 83 27 41 27 41 48 22z
m-4265 -222 c14 -5 16 -30 16 -171 0 -124 -4 -171 -15 -192 -16 -32 -43 -43
-83 -32 l-27 7 -3 184 c-1 102 0 190 2 197 6 14 81 18 110 7z m3465 -100 c8
-7 -52 -65 -83 -81 -24 -12 -30 -13 -37 -1 -5 7 -9 16 -9 19 0 10 -58 32 -68
25 -5 -3 -21 8 -36 23 l-28 29 129 -5 c70 -3 130 -7 132 -9z m-3999 -161 c0
-64 -4 -93 -10 -83 -7 11 -11 9 -19 -12 -11 -31 -40 -42 -80 -33 -52 11 -62
33 -59 126 l3 83 55 -3 c30 -1 66 2 80 8 14 5 26 10 28 10 1 1 2 -43 2 -96z
m2660 52 c0 -43 -1 -45 -30 -45 -29 0 -30 2 -30 45 0 43 1 45 30 45 29 0 30
-2 30 -45z"/>
</g>
</svg>
